<?xml version="1.0" encoding="utf-8"?>
<!-- Generator: Adobe Illustrator 25.2.1, SVG Export Plug-In . SVG Version: 6.00 Build 0)  -->
<!DOCTYPE svg PUBLIC "-//W3C//DTD SVG 1.1//EN" "http://www.w3.org/Graphics/SVG/1.1/DTD/svg11.dtd" [
	<!ENTITY ns_extend "http://ns.adobe.com/Extensibility/1.0/">
	<!ENTITY ns_ai "http://ns.adobe.com/AdobeIllustrator/10.0/">
	<!ENTITY ns_graphs "http://ns.adobe.com/Graphs/1.0/">
	<!ENTITY ns_vars "http://ns.adobe.com/Variables/1.0/">
	<!ENTITY ns_imrep "http://ns.adobe.com/ImageReplacement/1.0/">
	<!ENTITY ns_sfw "http://ns.adobe.com/SaveForWeb/1.0/">
	<!ENTITY ns_custom "http://ns.adobe.com/GenericCustomNamespace/1.0/">
	<!ENTITY ns_adobe_xpath "http://ns.adobe.com/XPath/1.0/">
]>
<svg version="1.1" id="Capa_1" xmlns:x="&ns_extend;" xmlns:i="&ns_ai;" xmlns:graph="&ns_graphs;"
	 xmlns="http://www.w3.org/2000/svg" xmlns:xlink="http://www.w3.org/1999/xlink" x="0px" y="0px" viewBox="0 0 394.8 841.9"
	 style="enable-background:new 0 0 394.8 841.9;" xml:space="preserve">
<style type="text/css">
	.st0{fill:#1E2039;}
	.st1{fill:#2A2C44;}
</style>
<metadata>
	<sfw  xmlns="&ns_sfw;">
		<slices></slices>
		<sliceSourceBounds  bottomLeftOrigin="true" height="852.8" width="394.8" x="118.4" y="-846.5"></sliceSourceBounds>
	</sfw>
</metadata>
<rect y="-6.3" class="st0" width="394.8" height="852.8"/>
<path class="st1" d="M394.8,99.8c0,0-19.5-1-31.7,29.2c0,0-44.9-16.9-44.9,26.1s38.8,38.9,38.8,38.9h37.8V99.8z"/>
<path class="st1" d="M392.2,332.5c-2.4-14.2-14.8-25.1-29.7-25.1c-14,0-25.8,9.6-29.2,22.6c-4-3.8-9.3-6.2-15.3-6.2
	c-12.1,0-22,9.8-22,22c0,12.1,9.8,22,22,22h76.6v-32.7L392.2,332.5z"/>
<path class="st1" d="M105.7,286.4c0.8-3.7,1.3-7.6,1.3-11.6c0-28.8-23.3-52.1-52.1-52.1c-15.3,0-29.1,6.6-38.6,17.1c0,0,0,0,0,0
	C6.2,248.5,0,267.8,0,267.8v88.7h86.7c20.8,0,37.6-16.8,37.6-37.6C124.3,305,116.8,292.9,105.7,286.4z"/>
<path class="st1" d="M80.8,113.3c0.6-2.8,1-5.8,1-8.8c0-22-17.8-39.8-39.8-39.8c-11.7,0-22.2,5.1-29.5,13.1c0,0,0,0,0,0
	C4.8,84.4,0,99.1,0,99.1v67.8h66.2c15.9,0,28.7-12.9,28.7-28.7C95,127.5,89.3,118.3,80.8,113.3z"/>
</svg>
